<svg width="130" height="150" viewBox="0 0 130 150" fill="none" xmlns="http://www.w3.org/2000/svg">
<g opacity="0.3" clip-path="url(#clip0_16_104)">
<path d="M37.1474 131.7C37.5553 130.73 37.9098 129.738 38.2097 128.73C38.8845 126.976 39.1696 125.097 39.045 123.222C38.9204 121.347 38.3891 119.522 37.4883 117.873C37.4096 117.716 37.1604 117.663 36.9899 117.584C36.7164 117.178 36.4093 116.796 36.0719 116.441C35.7608 116.122 35.4179 115.836 35.0489 115.587C34.2601 115.051 33.3654 114.693 32.426 114.535C31.5338 114.339 30.6072 114.365 29.7271 114.61C28.847 114.855 28.0401 115.312 27.3768 115.941C26.8165 116.681 26.4348 117.54 26.2619 118.453C26.089 119.365 26.1294 120.305 26.38 121.199C26.4399 121.335 26.4881 121.475 26.5243 121.619C26.5618 121.815 26.5618 122.015 26.5243 122.211C26.3976 123.123 26.0559 123.993 25.5276 124.747C25.2425 125.328 24.8283 125.834 24.3166 126.229C23.805 126.623 23.2096 126.894 22.5767 127.021C21.972 127.062 21.369 126.92 20.8456 126.614C20.257 126.242 19.7773 125.72 19.4554 125.102C18.6915 123.597 18.2354 121.955 18.1138 120.271C17.9922 118.588 18.2076 116.897 18.7473 115.297C19.4974 112.909 20.8797 110.77 22.7472 109.107L23.7047 108.345L24.7276 107.648C26.7473 106.416 29.0649 105.762 31.4292 105.756C34.8975 105.772 38.2632 106.937 41.0031 109.068C41.899 109.79 42.7165 110.605 43.4425 111.499C44.8319 113.221 45.9185 115.168 46.6557 117.256C47.9226 120.881 48.1898 124.781 47.4294 128.546C46.6697 132.229 45.1067 135.698 42.8524 138.705C40.7984 141.556 38.2321 143.999 35.2851 145.908C32.2194 147.887 28.7158 149.083 25.0817 149.39C21.944 149.574 18.8056 149.044 15.9013 147.839C13.1157 146.693 10.5302 145.109 8.24228 143.147C7.25768 142.024 5.93756 141.25 4.47833 140.939C4.39964 139.875 3.59953 139.415 2.89133 138.797C2.46838 138.557 2.14342 138.175 1.97319 137.718C1.80296 137.261 1.79835 136.759 1.96023 136.3C1.78641 135.769 1.55783 135.258 1.27823 134.775C0.465107 133.79 0.333939 132.935 0.76673 132.397C1.19952 131.858 2.28817 131.516 4.00622 131.227C4.75376 131.082 5.60618 130.583 6.24881 130.793C7.56026 130.911 8.07179 131.306 8.39966 131.871C8.65733 132.477 8.9552 133.065 9.29135 133.632C11.2975 136.137 13.9124 138.083 16.8849 139.283C19.7603 140.486 22.9229 140.824 25.9867 140.256C29.7881 139.551 33.1838 137.434 35.4949 134.328C36.1245 133.474 36.3211 132.383 37.0818 131.7H37.1474Z" fill="#61CAFF"/>
<path d="M102.657 131.895C103.166 131.212 103.63 130.496 104.047 129.753C104.473 129.123 104.829 128.449 105.11 127.742C105.365 127.069 105.536 126.367 105.621 125.652C105.806 124.132 105.641 122.59 105.136 121.144C105.136 121 104.861 120.921 104.729 120.816C104.184 119.242 103.108 117.908 101.687 117.044C100.98 116.666 100.193 116.463 99.3917 116.452C98.4996 116.44 97.6123 116.582 96.7685 116.873C94.9902 117.432 93.4457 118.564 92.3753 120.093C92.234 120.422 92.002 120.705 91.7062 120.908C90.8958 121.321 89.9918 121.515 89.0836 121.473C87.8199 121.598 86.5563 121.231 85.5557 120.448C85.1669 120.107 84.9075 119.643 84.821 119.133C84.7011 118.559 84.7655 117.961 85.0047 117.425C86.1114 114.796 88.0215 112.588 90.4605 111.116C92.7045 109.709 95.1834 108.721 97.7786 108.198C99.8133 107.765 101.926 107.878 103.903 108.527C105.863 109.176 107.655 110.253 109.149 111.681C111.922 114.431 113.739 118.002 114.329 121.867C114.938 125.326 114.48 128.888 113.018 132.079C111.59 135.159 109.461 137.86 106.802 139.965C104.398 141.922 101.679 143.455 98.762 144.499C95.7827 145.554 92.6073 145.935 89.4634 145.616C86.5736 145.292 83.8084 144.254 81.4165 142.595C79.0247 140.937 77.0812 138.71 75.7586 136.114C75.2892 134.711 74.4621 133.456 73.3589 132.473C73.5014 132.029 73.5527 131.559 73.5098 131.094C73.4669 130.629 73.3309 130.177 73.1097 129.766C72.8997 129.312 72.8586 128.798 72.9934 128.316C73.1275 127.834 73.4293 127.416 73.8437 127.137C74.0334 126.586 74.1908 126.024 74.316 125.455C74.4079 124.141 74.9589 123.378 75.6274 123.326C76.2964 123.273 77.2798 123.904 78.6698 124.942C79.2864 125.376 80.2179 125.718 80.5459 126.257C81.4243 127.111 81.6342 127.492 81.5686 127.9C81.503 128.307 81.2275 128.714 81.28 129.214C81.4004 130.335 81.7535 131.418 82.3158 132.395C82.8889 133.37 83.6623 134.212 84.5848 134.865C86.7173 136.276 89.2308 136.996 91.7849 136.929C95.1077 137.04 98.3613 135.964 100.965 133.893C101.621 133.275 102.014 132.447 102.762 132.04L102.657 131.895Z" fill="#61CAFF"/>
<path d="M116.74 52.2896C116.36 52.0135 115.94 51.79 115.56 51.5271C115.155 51.3155 114.761 51.0831 114.38 50.8309C113.061 49.9034 111.551 49.286 109.961 49.0243C108.372 48.7625 106.744 48.8635 105.199 49.3195C105.068 49.3195 104.989 49.5956 104.897 49.7265C103.295 50.3665 102.009 51.6131 101.317 53.1968C100.409 55.3153 100.083 57.6382 100.373 59.9259L100.491 60.7799C100.491 61.056 100.622 61.3189 100.675 61.595C100.807 62.1293 100.969 62.6558 101.16 63.1721C101.555 64.1259 102.095 65.0121 102.76 65.8004C102.864 65.9319 102.996 66.0765 103.114 66.2474C103.283 66.4094 103.405 66.6137 103.468 66.839C103.619 67.7761 103.473 68.737 103.048 69.5857C102.666 70.7904 101.847 71.8082 100.753 72.438C100.27 72.6478 99.7421 72.7291 99.2185 72.6741C98.6723 72.5576 98.166 72.2994 97.7498 71.9253C95.6459 70.0165 94.096 67.5735 93.2648 64.8544C92.5068 62.3432 92.0661 59.7472 91.9528 57.1261C91.6916 53.1341 92.926 49.1874 95.4151 46.0596C96.7241 44.4024 98.3521 43.0261 100.202 42.0119C101.124 41.5506 102.074 41.1514 103.048 40.8155C104.031 40.5161 105.035 40.292 106.051 40.1456C109.598 39.6956 113.199 40.2604 116.439 41.7753C119.603 43.2084 122.401 45.343 124.622 48.0179C126.874 50.6074 128.443 53.7203 129.186 57.0735C129.897 60.5104 129.6 64.0799 128.334 67.3518C127.252 70.0321 125.595 72.4416 123.481 74.4096C121.456 76.2866 119.156 77.8428 116.661 79.0225C116.098 79.3249 115.468 79.5484 114.904 79.9028C114.295 80.2966 113.79 80.8339 113.435 81.4673C112.465 81.0598 111.822 81.6382 111.035 82.0058C110.248 82.3739 109.435 82.742 108.556 81.7954C108.043 81.7231 107.522 81.7231 107.009 81.7954C105.868 82.0715 105.094 81.9006 104.806 81.2701C104.547 80.1281 104.63 78.9353 105.042 77.8398C105.212 77.0904 105.12 76.105 105.527 75.5922C106.091 74.4359 106.589 74.1598 107.166 74.0546C107.453 74.0151 107.745 74.0151 108.032 74.0546C108.327 74.0576 108.622 74.0265 108.911 73.9625C111.66 73.188 114.177 71.7484 116.242 69.7697C118.262 67.8693 119.707 65.437 120.412 62.7514C120.864 61.243 120.93 59.6444 120.605 58.1038C120.28 56.5625 119.573 55.1283 118.55 53.9325C118.235 53.6169 117.868 53.3408 117.54 53.0653C117.153 52.84 116.836 52.5125 116.622 52.1187L116.74 52.2896Z" fill="#61CAFF"/>
<path d="M49.4877 65.0384C48.7664 65.0384 48.0714 65.2482 47.3763 65.3008C46.1711 65.3313 44.9851 65.6104 43.8928 66.1213C42.8005 66.6329 41.8254 67.3643 41.0287 68.2715C41.0287 68.3635 41.0287 68.5476 41.0287 68.6785C40.2772 69.6651 39.9258 70.8998 40.0451 72.1357C40.238 73.8137 40.8367 75.4201 41.7893 76.8143C42.6321 78.1381 43.7905 79.2317 45.16 79.9948C45.2901 80.0558 45.4131 80.1305 45.527 80.2183C45.6933 80.2954 45.8343 80.4185 45.9336 80.5733C46.355 81.3855 46.5796 82.2861 46.5894 83.2016C46.7785 84.4345 46.5573 85.6954 45.9599 86.7896C45.7007 87.1853 45.3313 87.496 44.8975 87.6837C44.4411 87.8295 43.9508 87.8295 43.4944 87.6837C41.1932 87.0323 39.1036 85.7857 37.4353 84.0693C35.943 82.4886 34.6241 80.7526 33.5008 78.891C31.6972 76.0942 30.983 72.7309 31.4942 69.441C31.7421 67.6912 32.3208 66.0054 33.1992 64.4731C34.3907 62.4592 35.9963 60.7225 37.9093 59.3791C39.8223 58.0351 41.9989 57.1147 44.2943 56.6791C47.0977 56.1012 49.9893 56.1012 52.7927 56.6791C55.5521 57.1924 58.1688 58.295 60.465 59.9122C62.7865 61.5711 64.6464 63.7972 65.8683 66.3789C66.8415 68.5273 67.3633 70.8538 67.4027 73.2131C67.4408 75.4661 67.1892 77.7143 66.6555 79.9028C66.5207 80.4126 66.4199 80.9307 66.3531 81.4536C66.3311 82.0751 66.4956 82.6882 66.8254 83.2147C65.9864 83.6092 66.0913 84.3323 66.0126 85.0285C65.9339 85.7253 65.829 86.4347 64.7007 86.5267C64.4651 86.8685 64.0978 87.1446 64.006 87.5522C63.7436 88.4719 63.2844 88.8663 62.6946 88.7612C61.6117 88.3321 60.6486 87.6466 59.8877 86.7633C59.3239 86.2643 58.4583 85.8042 58.2092 85.252C57.4878 84.2534 57.4615 83.7538 57.6452 83.3199C57.8288 82.8867 58.301 82.5974 58.4321 82.1504C59.1862 79.9966 59.4984 77.712 59.3501 75.4345C59.2164 73.249 58.5548 71.1293 57.4223 69.257C56.8359 68.1717 56.0123 67.2329 55.013 66.5116C54.0138 65.7902 52.8647 65.3044 51.6517 65.0904C51.2976 65.0904 50.9435 65.0904 50.6025 65.0904C50.2637 65.1627 49.9104 65.1113 49.6059 64.9458L49.4877 65.0384Z" fill="#61CAFF"/>
<path d="M67.3253 9.52111C66.8136 9.71773 66.3676 10.0596 65.8822 10.2305C64.1069 10.8197 62.6304 12.0783 61.7645 13.7396C61.7645 13.8185 61.8563 13.9631 61.9088 14.0552C61.4806 15.0024 61.3697 16.0625 61.5939 17.0779C61.9124 18.4088 62.4968 19.6602 63.312 20.758C64.1009 21.8904 65.061 22.8926 66.1577 23.7281C66.4236 23.8799 66.6311 24.1159 66.748 24.3986C66.9657 25.2586 66.9925 26.1556 66.8267 27.0275C66.7439 28.2532 66.3413 29.4365 65.6597 30.4578C65.4349 30.799 65.0992 31.0524 64.7098 31.1743C64.3204 31.2968 63.9006 31.2801 63.5219 31.1277C61.7627 30.3365 60.1729 29.2117 58.8397 27.8157C57.5282 26.5016 56.4792 25.0823 55.3381 23.6498C53.6391 21.4482 52.7166 18.744 52.7152 15.9609C52.6953 13.0327 53.5543 10.1659 55.1808 7.73366C56.5914 5.6235 58.5079 3.90119 60.7543 2.72569C62.9399 1.55259 65.3401 0.836653 67.8101 0.622709C70.2783 0.351395 72.7757 0.643621 75.1151 1.47729C77.5678 2.36653 79.7003 3.96813 81.24 6.07709C82.4744 7.82092 83.2747 9.83545 83.5741 11.9522C83.8484 13.9655 83.8132 16.0088 83.4697 18.0114C83.4697 18.4841 83.2992 18.9442 83.2861 19.4438C83.3111 20.0265 83.5073 20.5888 83.8496 21.0604C83.0237 21.4285 83.1811 22.0984 83.0893 22.7689C82.9974 23.4394 82.9056 24.0831 81.7773 24.0831C81.5287 24.3986 81.1613 24.6353 81.0695 25.0165C80.7678 25.8705 80.2823 26.2386 79.6532 26.0151C78.6347 25.4426 77.7426 24.6687 77.03 23.7412C76.4521 23.253 75.9249 22.7068 75.4562 22.1116C74.7478 21.1392 74.6697 20.7974 74.8003 20.4819C74.9315 20.1663 75.325 20.0486 75.4169 19.7331C75.9232 18.1757 76.018 16.5143 75.6924 14.9092C75.3871 13.3357 74.6416 11.8811 73.5414 10.7169C72.9487 10.0739 72.2235 9.56713 71.4167 9.23127C70.5806 8.91275 69.673 8.83087 68.794 8.99522C68.2824 9.1004 67.8494 9.5994 67.3122 9.41534L67.3253 9.52111Z" fill="#61CAFF"/>
</g>
<defs>
<clipPath id="clip0_16_104">
<rect width="150" height="130" fill="white" transform="matrix(0 -1 1 0 0 150)"/>
</clipPath>
</defs>
</svg>
