<svg width="1500" height="1500" viewBox="0 0 1500 1500" fill="none" xmlns="http://www.w3.org/2000/svg">
<path d="M801.75 362.85L801.9 368.25L805.95 371.25L802.35 374.7L799.05 378.6L804.45 382.8L810.3 382.35L815.1 378L818.7 371.7L820.95 365.85L821.1 366L833.55 381.15L844.65 400.2L849.15 404.85L855.45 406.8L860.55 410.85L868.05 429L869.85 430.95L871.8 433.05H871.95L880.35 436.95L884.7 445.95L889.5 464.25L890.4 460.95L891.45 459.6L893.4 460.05L896.7 461.85L895.8 465.3L905.4 475.8L908.55 481.05V487.35L906 489.9L902.4 491.55L899.1 495.3H899.25L901.65 494.7L904.35 493.95L904.95 493.65L906.15 492.9L906.3 493.05L913.8 509.4L914.85 517.8L906.3 519.3H906.15L907.95 513.6L905.7 509.1L901.8 508.5L899.1 514.5L900 519.15L902.55 522.45L903.9 526.05L901.35 531.3L899.25 529.8L895.5 526.95L889.5 523.2L883.5 521.7L877.65 524.25L873.15 530.25L874.8 533.4L880.2 532.65L887.4 526.65L892.35 531.9L896.7 538.2L902.1 543.45L909.75 545.7L925.65 545.4L931.05 541.95L927.45 533.85L936.6 529.65L940.2 528.45L943.95 528.75H944.1L948.3 531.15L952.05 535.35L954.9 540.15L957.45 554.1L962.85 572.1L963 576.75L963.15 581.55L958.8 578.4L954.15 569.1L950.1 567.15L949.95 569.7L951.6 581.1L951.75 581.85L953.7 586.2L955.95 587.4L958.05 588.3H958.2H962.85L966.45 590.1L968.7 603.45L971.4 612.75L971.85 614.25L972.6 619.95L941.55 616.65L935.7 618.6H930.45H926.1L922.95 622.05L920.7 626.25L918 628.2L915.6 630.3L913.5 639.45L911.7 642.75L906.75 654.15L898.2 656.25L896.4 655.65L895.05 654.6L899.1 652.05L900.9 647.7L899.7 641.1L899.85 636.6L899.4 632.25L896.85 628.65L892.5 629.1L886.35 625.95L880.8 621.6L875.1 618.3H868.95L842.7 611.85L828.15 613.35L823.8 609L822.45 601.65L817.05 597.6L811.5 595.35L807.45 589.35L802.2 590.85L809.7 564L810.6 559.65L811.95 555.45L816.3 551.25L821.1 547.95L823.95 542.85L821.7 537.45L817.65 534.45L814.65 530.4L809.7 518.85L800.55 505.2L799.2 496.8L795.45 493.2L792.6 489.9L792.3 482.7L797.55 470.25L795 462.9L788.55 448.8L788.4 433.8L794.25 425.1L798.3 416.1L795 413.55L792.15 409.8L786.9 403.95L771.75 393.45L763.05 388.35L752.85 388.2L743.1 392.1L744.6 386.1L747.45 381L761.1 374.7L777 372.6L783.75 370.65L789.75 367.2L796.35 365.25L801.75 362.85Z" fill="white" stroke="#0E4C92" stroke-width="0.5" stroke-linecap="round" stroke-linejoin="round"/>
<path d="M801.75 362.85L796.35 365.25L789.75 367.2L783.75 370.65L777 372.6L761.1 374.7L747.45 381L753.9 357.3L749.7 351.75L738.6 345L727.8 343.35L722.7 346.8L717.3 348.15L717.9 343.35L721.2 338.4L717.15 331.35L707.85 330.3L706.65 319.05L695.85 315L684.6 315.3L683.85 316.95L683.25 318.75L679.95 320.7L676.5 322.35L670.5 327.6L662.1 331.35L656.7 323.4L648.15 318L636.15 318.3L629.55 317.85L623.25 318.45L622.35 323.55L625.05 327.3L630.15 328.05L630.45 330.9V334.05L631.8 340.05L632.1 345.9L625.95 355.35L616.35 363.15L600.3 373.35L543.15 376.35L547.65 363.75L546 361.35L544.35 358.2L545.55 354.15L547.35 350.25L548.55 346.35L550.05 342.9L557.7 340.35L558.15 333.15L557.4 324.9L558.75 319.8L558.9 314.55L558.6 311.85L557.85 309.45L551.55 299.25L549.45 287.85L549 275.85L558.15 277.05L557.25 267.3L566.25 255.45L592.8 252.45L602.25 252.3L611.55 253.95L620.7 253.05L626.7 237.9L631.35 237.75L647.1 238.65L655.8 238.05L661.65 234.9L666.45 219L668.1 218.55L670.65 221.85L677.55 227.55L685.35 231.9L684.45 223.95L685.5 216L692.85 210.15L693.6 204.3L695.25 202.65L697.05 201.45L699.15 199.65L740.1 232.95L740.4 233.55L742.95 237.6L746.7 242.55L754.2 249.6L758.85 255.6L754.8 257.85H754.65L752.4 256.8L752.1 256.65H751.95L748.35 252L746.4 250.95L740.1 249.9L737.4 250.65L738.75 253.5L739.2 254.4L757.05 271.2L764.1 275.1L761.4 270.75L759.75 266.7L760.5 263.85L765.3 262.65L767.55 264.15L771.3 275.1L774.6 281.7L787.8 308.1L785.1 307.2L777.75 304.35H773.25L771.3 309.3L774 310.5L779.55 311.55L784.65 314.7V315.15L785.4 322.65H787.8L788.85 320.7L789.9 319.8L791.1 319.2L792.75 318.15L794.4 325.05L794.7 325.95L799.5 337.2L806.1 347.25L812.85 351.6L813.3 352.05L814.05 352.65V355.2L812.4 357.6L809.25 358.8L808.35 357.75L804.45 351.6L800.4 349.35L790.95 346.95L785.4 344.4L787.95 348L789.3 349.95L801.75 361.65V362.85Z" fill="white" stroke="#0E4C92" stroke-width="0.5" stroke-linecap="round" stroke-linejoin="round"/>
<path d="M699.15 199.65L697.05 201.45L695.25 202.65L671.7 186.45L663.6 182.7L656.4 181.05L655.35 180.6L654.3 180.15L648.15 175.35L645.75 174L643.35 173.55L640.5 173.7L639.9 170.25L635.4 156.75L636.3 157.2V154.5L623.7 148.2L593.25 123.15L568.35 94.35L555.75 87.45L535.95 82.8L530.7 79.05L529.95 73.65L537.3 70.5L539.55 70.05L546.75 68.85L561.15 68.25L568.05 69.45L572.85 72.9L576 84.3L579.15 89.1L624.45 142.65L631.05 147.45L644.55 155.25L699.15 199.65ZM571.2 143.25L553.5 135.45L547.05 131.7H542.7L543.6 140.25L546 142.65L549.6 145.5L551.85 148.95L549.6 153.45L547.05 154.35L544.5 152.85L542.25 150.9L535.5 147.45L522.6 136.2L515.25 133.05L519 137.25L525.75 143.1L529.65 147.3L521.25 145.8L513 142.35L496.35 133.05L483 122.55L475.2 119.7L474.45 119.25L471.45 117.3L468.6 116.1L468.15 118.65L464.4 116.1L462.9 112.65L462.3 108.6L460.95 104.1L458.7 100.2L457.35 98.4L453.75 93.75L451.5 89.7L459 85.95L472.65 73.2L478.65 70.5H478.8L505.8 72.9L519.9 71.25L525 71.85L527.1 76.65L526.65 84L527.7 86.55L530.7 87.45L533.55 87.9L541.8 90L543.6 91.05L545.1 94.05L548.85 93.9L551.7 93L552.9 92.7L554.55 92.4L555.75 92.25L558.45 93.9L559.65 94.5L569.25 105.15L583.2 120.3V120.45L578.55 130.5L571.2 143.25ZM389.7 183.75L386.85 186.3L384 189L375.3 189.6L367.2 186.9L363.75 182.4V168L364.65 164.4L367.05 164.85L369.3 167.85L370.8 171.45L376.8 173.4L383.85 174L385.65 175.2L389.7 183.75ZM446.7 142.65L441.3 138.75L436.05 130.65L427.65 113.85L431.4 107.85L432.3 100.2L434.55 93.9L442.05 92.25L445.95 93.45H446.1L446.4 96.45L445.05 100.65L444.15 105.3L444.3 110.1L444.75 114V114.3L445.05 115.05L446.25 117.75L447.9 119.55L449.1 121.05L450.6 121.35L457.35 121.05L458.4 122.1L458.85 127.35L459.75 129.45L463.65 132L469.05 134.25L473.55 136.8L473.85 137.7L475.05 140.25L472.65 142.65H468.15L463.2 141.15L459.75 139.05L457.35 138.45L451.05 142.05L446.7 142.65Z" fill="white" stroke="#0E4C92" stroke-width="0.5" stroke-linecap="round" stroke-linejoin="round"/>
<path d="M635.4 156.75L639.9 170.25L640.5 173.7L636.3 174L633.6 175.05L633.15 175.65L632.4 176.85L631.05 177.6L626.4 174.15L624.6 173.85L613.35 174.15L610.2 173.25L585.6 151.8L575.1 144.9H574.95L571.2 143.25L578.55 130.5L583.2 120.45V120.3L599.7 138.45L610.5 145.2L635.4 156.75ZM695.25 202.65L693.6 204.3L692.85 210.15L685.5 216L684.45 223.95L685.35 231.9L677.55 227.55L670.65 221.85L668.1 218.55L666.45 219L661.65 234.9L655.8 238.05L647.1 238.65L631.35 237.75L626.7 237.9L620.7 253.05L611.55 253.95L602.25 252.3L592.8 252.45L566.25 255.45L557.25 267.3L558.15 277.05L549 275.85L542.4 280.8L535.05 284.55L523.2 285.6H520.65L522.75 277.05V256.65L523.5 253.65L522.9 251.7L518.85 250.95L509.25 246L505.65 242.4L503.25 235.8L502.8 234.6L501.15 226.5L501 221.85L505.2 217.35L512.85 213.6L521.25 210.9L528.3 209.85L531.45 208.2L538.95 198.15L539.85 197.4L541.2 196.35L543.75 194.85L546.9 193.65L550.8 193.05L547.5 187.05L545.55 184.35L543.6 181.65L538.5 176.55L531.75 171.45L506.25 156.45L501 150L512.1 150.3L522.75 154.65L543.6 166.8L563.4 171.75L568.65 175.2L576.9 182.4L578.85 186.15L574.65 188.25L575.55 190.65L576.75 193.05L574.65 195.45L581.85 200.4L598.95 196.2L630.15 183.75L638.7 184.5L657 189.6L678.75 199.5L695.25 202.65Z" fill="white" stroke="#0E4C92" stroke-width="0.5" stroke-linecap="round" stroke-linejoin="round"/>
<path d="M549 275.85L549.45 287.85L551.55 299.25L557.85 309.45L558.6 311.85L558.9 314.55L558.75 319.8L557.4 324.9L558.15 333.15L557.7 340.35L550.05 342.9L548.55 346.35L547.35 350.25L545.55 354.15L544.35 358.2L546 361.35L547.65 363.75L543.15 376.35L600.3 373.35L609.6 377.7L615 386.25L620.25 399.75L618.45 411.9L600 418.8L580.5 421.2L567.9 419.85L558.3 425.25L553.05 436.95L544.2 437.85L542.85 443.1V447.6L550.95 453.9L564.15 470.85L530.4 479.7L513.45 479.55L498.15 473.25L500.85 493.8L500.1 526.2L496.8 525.75L493.95 524.4L484.65 519.15L475.8 515.4L465.6 514.5L456.45 511.05L452.55 508.65L453.9 507.3L454.35 505.5L457.8 494.85L458.25 494.4L458.55 494.1L459.3 491.1L462.6 484.05L465.6 450L457.35 428.25L457.95 424.5L458.55 399.75V399.45L457.8 391.05L456.75 387L454.95 384L453.45 380.4L456.75 378.75L461.4 377.85L464.4 376.95L484.5 358.8L495 353.55L499.35 349.8L501.6 341.25L505.8 332.4L508.05 320.25L519.3 291.45L519.6 289.8L520.65 285.6H523.2L535.05 284.55L542.4 280.8L549 275.85ZM383.85 332.4L379.95 330.9L378.3 327.6L379.35 324.15L383.85 322.65H399.3L406.2 324.45L413.25 326.25L427.95 331.95L442.05 340.05L453.9 351.6H453.75L448.2 350.4L438.15 345.45L432.3 344.4L441.3 354.6L448.35 362.7L451.5 368.25L443.25 367.2L437.85 363L434.1 358.5L431.25 356.4L427.8 354.6L413.55 341.85L406.5 338.7L399.3 335.4L394.2 334.05L391.5 333.3L383.85 332.4Z" fill="white" stroke="#0E4C92" stroke-width="0.5" stroke-linecap="round" stroke-linejoin="round"/>
<path d="M452.55 508.65L456.45 511.05L465.6 514.5L475.8 515.4L484.65 519.15L493.95 524.4L495.9 538.8L489.6 552.15L478.8 561L478.35 563.55L476.85 566.7L471 569.4L467.1 577.95L472.2 587.85L480.9 622.95L483 629.25H490.2L496.05 626.55L502.2 631.2L509.25 630.9L514.35 635.1L518.1 640.05L518.85 646.65L518.7 653.7L522.3 667.5L523.5 674.4L526.8 680.55L531.6 682.2L535.65 684.9L534.75 689.1L533.4 693.6L533.7 703.05L533.4 711L530.85 714.9L528.75 718.95L532.95 726.75L528.6 730.05L521.4 726L519.45 729.45L519.3 733.65L516.6 736.5L514.5 737.1L514.8 736.5L515.1 735.9L510 738.3L507.9 743.1L507.3 746.7L505.95 749.85L498.6 753.6L496.95 757.2L496.05 760.95L491.85 763.8L487.35 766.2L486 769.95L485.4 774.15L482.1 782.55L481.05 791.85L482.85 795.75L484.2 799.35L481.8 802.65L478.05 804.15L473.1 804.6L468.6 805.95L466.2 810L464.55 814.5L468.75 815.55L470.7 818.85L466.5 821.1L461.55 822.3L459.15 825.75L457.8 829.8L452.55 838.65L448.8 848.25L448.2 860.25L448.8 872.25L461.55 940.95L462.45 961.65L456.45 959.25L451.35 962.55L447.3 961.95L444.6 958.95L437.85 959.85L431.4 961.5L423.15 961.2L408.3 851.7L406.2 847.2L407.55 845.7L408.6 845.55L411.15 847.2L411.75 841.2L413.4 834.15L413.85 830.85L414.3 827.4L412.35 822.15L409.65 817.35L409.2 814.2L408.75 811.05V798.15L400.8 759L399.75 754.5L395.7 745.95L392.25 727.8L386.55 713.55L377.85 674.25V663L379.35 663.75L379.5 663.9V664.2L380.25 665.4L381.45 658.95L379.65 638.25L377.85 632.1L383.55 628.35L388.95 621.3L392.85 613.35L394.35 606.75L396 602.4L406.2 586.2L406.05 586.5L400.95 598.8L394.35 610.35L395.85 613.2L396.15 613.8L398.7 616.5L402 617.7H406.2L402.75 627.3L399.3 634.2L397.8 635.4L396.15 635.55L394.95 636.6L394.35 640.2L394.65 648.6L394.35 651.15L388.5 669.75L388.8 673.35L389.25 680.25L395.25 687.45L396.9 689.4L390 703.95L401.1 712.05L417.15 713.25L425.25 707.4L423.75 701.25L421.05 696.45L420.15 694.5L418.8 693L415.8 689.1L412.35 686.85L411.3 683.1L423 660.9L422.55 656.85L421.05 653.85L419.25 651.3L418.2 648.75L417.9 644.55L418.35 637.2L418.2 634.35V634.2L418.05 633.6L417.15 631.2L416.55 630.6L415.8 630L415.2 628.5L415.8 624.6L417.45 621.3L421.95 615.45L423 611.55L423.75 604.2L426.9 589.65L430.2 555.45L432.3 551.55L434.55 549.6L436.35 547.35L437.1 542.25V527.7L439.05 520.5L443.7 516L449.4 512.1L452.55 508.65Z" fill="white" stroke="#0E4C92" stroke-width="0.5" stroke-linecap="round" stroke-linejoin="round"/>
<path d="M423.15 961.2L431.4 961.5L437.85 959.85L444.6 958.95L447.3 961.95L451.35 962.55L456.45 959.25L462.45 961.65L469.8 958.8L483 948.45L491.25 948.15L500.85 954.75L510.75 951.9L519.3 945.9L528.9 944.1L532.05 947.55L532.95 950.55L535.05 953.4L543.6 963.3L549.6 967.65L550.2 972.3L546.75 975L545.85 987L541.35 991.2L535.95 994.05L534.45 1003.95L538.65 1012.65L547.05 1010.7L554.4 1012.8L551.85 1018.65L546.75 1022.25L542.4 1032.3L540.6 1042.5L545.7 1059L545.85 1062.15L544.8 1065L538.5 1067.25L529.2 1066.35L522.3 1069.5L516.75 1074.9L515.4 1081.5L514.95 1088.25L507.6 1088.7L501.45 1087.95L497.4 1086.3L493.5 1084.2L489.45 1080.45L484.8 1077.6L478.95 1077.9L472.95 1079.1L455.7 1074.15L452.55 1075.35L449.85 1076.85L443.7 1075.35L438 1072.35L430.65 1069.5L434.1 1061.25L435 1057.35L434.85 1053.3V1053.15L418.35 994.35L420.6 985.65L420.45 991.05L421.8 994.35L423.6 996.9L425.25 1000.05L428.55 1011.6L430.2 1014.45H432.3L432.9 1011.15L433.8 1009.8L434.7 1009.5L435 1009.65L434.85 999L434.1 994.35L432.3 990.45L430.65 989.4L426.15 988.35L424.2 987L423.9 986.55L422.7 984L423.3 981.15L424.5 978.6L425.25 976.2L423.15 961.2Z" fill="white" stroke="#0E4C92" stroke-width="0.5" stroke-linecap="round" stroke-linejoin="round"/>
<path d="M430.65 1069.5L438 1072.35L443.7 1075.35L449.85 1076.85L452.55 1075.35L455.7 1074.15L472.95 1079.1L478.95 1077.9L484.8 1077.6L489.45 1080.45L493.5 1084.2L497.4 1086.3L501.45 1087.95L507.6 1088.7L514.95 1088.25L515.4 1081.5L516.75 1074.9L522.3 1069.5L529.2 1066.35L538.5 1067.25L544.8 1065L552.3 1065.6L558.3 1068.6L559.35 1074.9L554.7 1079.25L555.15 1082.55L555.3 1086L550.95 1091.4L547.2 1097.4L545.7 1102.2L543.9 1106.4L552.45 1115.4L544.8 1122.3L534.75 1119.9L523.5 1124.7L525.75 1134.75L519 1132.95L514.5 1122.6L512.7 1121.55L510.45 1121.1L506.25 1126.05L500.85 1128.75L497.1 1127.1L493.2 1127.55L479.85 1138.95L476.1 1140.6L472.05 1141.65L462 1145.4L446.1 1135.35L445.65 1141.2L447.75 1147.65L448.8 1152.15L448.95 1156.5L448.8 1156.65L448.2 1157.55L435.3 1124.4L430.65 1098.15L430.2 1095.6V1070.55L430.65 1069.5Z" fill="white" stroke="#0E4C92" stroke-width="0.5" stroke-linecap="round" stroke-linejoin="round"/>
<path d="M448.2 1157.55L448.8 1156.65L448.95 1156.5L448.8 1152.15L447.75 1147.65L445.65 1141.2L446.1 1135.35L462 1145.4L472.05 1141.65L476.1 1140.6L479.85 1138.95L493.2 1127.55L497.1 1127.1L500.85 1128.75L506.25 1126.05L510.45 1121.1L512.7 1121.55L514.5 1122.6L519 1132.95L525.75 1134.75L523.5 1124.7L534.75 1119.9L544.8 1122.3L546 1129.35L552 1145.4L551.55 1150.95L553.65 1157.55L557.1 1164.45L567.6 1174.65L569.7 1184.85L573.45 1188.45L578.25 1190.25L586.05 1197.3L591 1206.9L585.75 1209L587.7 1214.85L602.25 1235.4L614.7 1257.15L602.4 1260L590.4 1267.5L583.95 1270.35V1277.7L586.5 1285.35L585.9 1292.25L580.5 1288.05L575.1 1282.8L564.9 1275L554.4 1275.9L544.95 1281.15L530.1 1278.3L524.25 1274.4L518.7 1269.6L511.8 1266.6L505.5 1265.25L492.9 1259.4L491.1 1256.4L488.55 1254L485.1 1255.35L482.85 1256.85L480.75 1255.05L478.95 1252.5L476.55 1251.9L475.05 1245.9L474.3 1245.3L472.8 1244.4L471.3 1243.05L470.4 1241.25L470.7 1239.15L472.35 1238.7L474.15 1238.85H475.05L472.35 1220.55L472.2 1219.05L465 1200.6L448.2 1157.55Z" fill="white" stroke="#0E4C92" stroke-width="0.5" stroke-linecap="round" stroke-linejoin="round"/>
<path d="M476.55 1251.9L478.95 1252.5L480.75 1255.05L482.85 1256.85L485.1 1255.35L488.55 1254L491.1 1256.4L492.9 1259.4L505.5 1265.25L511.8 1266.6L518.7 1269.6L524.25 1274.4L530.1 1278.3L544.95 1281.15L554.4 1275.9L564.9 1275L575.1 1282.8L580.5 1288.05L585.9 1292.25L586.5 1285.35L583.95 1277.7V1270.35L590.4 1267.5L602.4 1260L614.7 1257.15L618.9 1261.5L623.7 1265.55L629.55 1267.95L634.65 1268.1L645.45 1273.35L651 1273.2L654 1277.55L646.8 1279.65L642.15 1284.3L646.2 1290.6L651.6 1295.85L649.5 1305.75L638.85 1303.35L632.25 1297.05L624.9 1291.65L619.2 1289.85L613.65 1291.35L617.1 1297.8L624 1302.15L631.2 1312.65L633.9 1322.55L627.75 1330.05L615.6 1327.95L619.2 1332.15L620.85 1337.85L618.45 1345.05L615.3 1351.8L617.55 1358.55L622.8 1363.65L628.95 1367.85L634.5 1372.8L629.7 1378.35L624.3 1383.9L619.5 1385.85L617.4 1389.15L618.45 1392.75L621.15 1394.25L627.3 1396.8L625.2 1401L618.9 1403.25L615.15 1410V1413.9L615.75 1417.5L615.9 1417.95L613.65 1417.5L612 1416.75L610.8 1415.25L609.3 1413.6L606.6 1412.85L605.1 1413.3L603.75 1414.5L602.4 1415.4H600.6L600 1414.95L599.4 1414.35L597.3 1411.35L596.1 1410.6L595.95 1410.45L593.4 1409.55L578.7 1404.3L572.55 1402.95L568.35 1402.05L560.85 1396.05L559.05 1395.3L555.75 1393.65L553.2 1396.2L546.75 1390.95L518.55 1361.1L516.3 1359.3L516 1359L515.25 1357.95L514.8 1356.6L514.95 1353.6L514.05 1352.1L512.85 1350.45L509.7 1346.4L493.8 1312.65L493.05 1309.5L493.2 1306.5V1303.65L492.6 1301.85L489.75 1295.85L486.9 1279.65L480.45 1268.25L476.55 1251.9Z" fill="white" stroke="#0E4C92" stroke-width="0.5" stroke-linecap="round" stroke-linejoin="round"/>
<path d="M615.9 1417.95L615.75 1417.5L615.15 1413.9V1410L618.9 1403.25L625.2 1401L627.3 1396.8L621.15 1394.25L618.45 1392.75L617.4 1389.15L619.5 1385.85L624.3 1383.9L629.7 1378.35L634.5 1372.8L628.95 1367.85L622.8 1363.65L617.55 1358.55L615.3 1351.8L618.45 1345.05L620.85 1337.85L619.2 1332.15L615.6 1327.95L627.75 1330.05L633.9 1322.55L631.2 1312.65L624 1302.15L617.1 1297.8L613.65 1291.35L619.2 1289.85L624.9 1291.65L632.25 1297.05L638.85 1303.35L649.5 1305.75L651.6 1295.85L646.2 1290.6L642.15 1284.3L646.8 1279.65L654 1277.55L660.75 1276.5L667.5 1275L669.9 1269.3H675.75L691.05 1267.2L696 1276.5L693.75 1282.65L699.9 1283.7L708.15 1282.35L712.05 1287.15L711.75 1290.45L716.25 1293.75L714.45 1295.55V1298.85L711.15 1300.2L711.75 1302.75L709.35 1308.9L711.75 1314.45L698.4 1324.5L694.2 1339.35L700.2 1343.7L706.8 1346.1L709.8 1345.65L711.75 1347.45L710.1 1351.05L708 1354.2L709.2 1360.2L714.9 1363.2L718.95 1362.6L722.7 1363.35L721.5 1366.35L718.35 1369.35L722.1 1382.7L710.85 1387.5L711.75 1393.05L716.55 1396.2L719.85 1396.5L722.85 1398.15L722.7 1401L720.15 1402.35L724.35 1408.65L733.05 1412.7L735 1413.75L729.75 1419.9L715.5 1419.15L709.65 1419.9L705 1421.7L700.2 1424.4L691.8 1430.7L689.4 1431.3L687 1431.75L681.3 1429.65L675.15 1426.5L671.7 1425.45L669.3 1424.7L649.2 1427.1L643.5 1425.9L640.65 1423.05L638.85 1419.3L637.35 1417.05L636.3 1415.4L630.45 1418.85L625.2 1419.3L615.9 1417.95Z" fill="white" stroke="#0E4C92" stroke-width="0.5" stroke-linecap="round" stroke-linejoin="round"/>
<path d="M735 1413.75L733.05 1412.7L724.35 1408.65L720.15 1402.35L722.7 1401L722.85 1398.15L719.85 1396.5L716.55 1396.2L711.75 1393.05L710.85 1387.5L722.1 1382.7L718.35 1369.35L721.5 1366.35L722.7 1363.35L718.95 1362.6L714.9 1363.2L709.2 1360.2L708 1354.2L710.1 1351.05L711.75 1347.45L709.8 1345.65L706.8 1346.1L700.2 1343.7L694.2 1339.35L698.4 1324.5L711.75 1314.45L709.35 1308.9L711.75 1302.75L711.15 1300.2L714.45 1298.85L734.1 1302.75L759.45 1311.9L766.2 1312.95L772.8 1311.3L779.4 1310.7L784.65 1314.9L788.7 1319.55L801.3 1322.1L808.65 1324.5L810.3 1318.35L807.15 1309.5L800.7 1302.45L809.25 1296.9L817.95 1292.1L827.7 1288.95L835.2 1283.25L831.9 1275.45L833.55 1267.65H837.9L842.7 1267.2L845.55 1263.3L845.4 1258.65L849.75 1261.65L852.9 1257.9H861.6L870.3 1258.95L876.15 1261.05L878.7 1267.35L882.15 1267.95L885.9 1267.8L889.05 1265.55L893.4 1264.95L899.85 1273.5L905.25 1282.5L913.8 1286.1L923.25 1280.85L926.7 1277.4L931.95 1275.3L942 1272.6L962.55 1264.65L966.45 1261.95L967.2 1262.85L970.35 1263.3L979.5 1260L989.1 1262.1L993.6 1254.75V1251.75L993.45 1248.9L994.95 1246.8L996.45 1244.25L994.8 1239.6L994.65 1233.75L1001.4 1228.2L1009.65 1224.6L1015.95 1218.45L1023.3 1212.9L1032.6 1211.25L1038.75 1203.9L1049.1 1216.65L1053 1216.95L1057.5 1217.55L1063.2 1224.15L1071.6 1226.85L1074.75 1227.75L1064.1 1244.55L1053.3 1255.5L1033.2 1269.75L1026.6 1271.7L1017.9 1276.35L953.7 1326.9L940.8 1333.95L899.1 1348.65L898.5 1343.7V1343.4L896.1 1341.45H895.95L895.5 1341.6L893.4 1342.2L892.05 1344.9L891.3 1350.75L889.5 1353L886.5 1353.9L882.45 1355.55L874.95 1360.2L867.45 1363.5L831.45 1371.15L813.9 1377.15L794.85 1380.75L786.15 1384.05L780.9 1391.4L771.45 1389.6L765.75 1391.85L762.45 1393.05L749.1 1402.95L735.9 1412.85L735 1413.75Z" fill="white" stroke="#0E4C92" stroke-width="0.5" stroke-linecap="round" stroke-linejoin="round"/>
<path d="M1074.75 1227.75L1071.6 1226.85L1063.2 1224.15L1057.5 1217.55L1053 1216.95L1049.1 1216.65L1038.75 1203.9L1047.75 1076.25L1045.95 1069.35L1041.9 1063.35V1056.6L1039.5 1050L1041 1043.1L1041.75 1036.5L1031.55 1030.35L1019.25 1027.2L1017.45 1025.55L1015.2 1024.35H1012.65L1009.95 1023.15L1007.25 1018.35L1005.75 1012.95L1001.4 1004.7L1005.45 993.9L1012.65 985.35L1018.2 981L1010.7 970.5L1009.65 963L1004.85 954.6L997.2 948L995.85 941.25L996.3 932.85L992.25 914.55L992.85 909.9L990.6 909.45L988.5 908.1L993.6 900.15L986.7 898.35L978.15 903L973.95 904.5L970.05 906.15L968.85 909.45L966.45 913.2L961.65 914.4L958.2 914.7V919.2L960.15 923.25L960.45 927.45L958.95 930.9L956.55 933.75L954.9 936.15L947.85 940.05L939.3 939.75L939.45 953.1L941.25 966.15L934.8 970.8L927.75 973.2L924.75 967.5L922.05 960.9L920.85 954.6L917.7 948.3L915.3 944.25L913.8 941.1L909.6 940.35L906.6 941.1L901.5 936L897.6 927.75L895.35 912.45L894 908.1L892.95 903.75L893.85 900.6L895.8 897L899.4 880.05L898.2 862.65L882.75 859.35L865.8 868.8L858.45 875.7L854.25 877.35L850.8 878.1L844.5 880.35L835.95 866.1L833.25 857.7L832.8 852L830.55 847.05L825.3 843.9L824.4 843L827.7 826.35L826.95 819.75L824.4 811.8L824.7 805.95H831.15L844.05 804.75L850.35 803.7L862.95 808.5L873.15 818.7L889.95 823.95L898.05 828.6L904.8 829.5L905.7 825.9L907.2 821.7L909.45 819.45L911.4 815.7L910.35 807.45L911.85 799.65L921.3 801.45L932.4 800.85L941.55 803.85L953.4 821.1L961.05 828.3L971.55 831.3L982.5 833.55L982.05 843.9L978.6 854.1L979.35 859.95L982.5 865.05L993.45 871.65L999.3 877.35L1021.95 881.25L1045.05 878.85L1053.15 874.2L1053.3 883.05L1056 891.6L1057.05 911.25L1059.45 916.95L1071.6 904.95L1078.65 899.25L1088.1 897.75L1094.7 896.7L1095 898.05L1097.85 898.65L1100.7 895.05H1102.8L1105.5 909.15L1105.35 914.25H1107.75V914.1L1108.05 909.3L1108.95 904.5L1110.3 900.3L1112.55 897.45V895.05L1112.25 894.45L1111.5 892.35L1112.1 891.15L1114.05 892.05L1117.2 895.05L1118.25 897.75L1119 905.25L1124.4 913.65L1132.95 943.35L1131.3 1025.25L1132.2 1030.8L1135.8 1043.1L1136.25 1050.3L1134.3 1064.25L1118.4 1119.45L1117.5 1125.15L1117.2 1132.65L1116 1138.95L1111.05 1148.7L1109.85 1153.05L1107.9 1159.05L1101.3 1169.55L1098.15 1174.5L1100.4 1182.9L1096.65 1192.95L1074.75 1227.75Z" fill="white" stroke="#0E4C92" stroke-width="0.5" stroke-linecap="round" stroke-linejoin="round"/>
<path d="M935.7 618.6L941.55 616.65L972.6 619.95L973.65 623.55L980.85 648L983.55 663.9L977.25 672.6L973.8 658.2L973.35 656.1L967.95 641.55H965.55L965.1 652.65L965.55 656.1L965.25 655.95L964.95 657V658.8L965.55 660.9L966.6 662.25L969.6 663.15L970.2 664.2L973.05 671.55L979.05 676.05L984.9 675.6L986.85 668.1H989.1L991.2 672L991.8 673.05L994.65 685.65L997.5 690.6L1001.4 694.8L1003.95 698.85L1008.15 708.75L1009.8 707.1L1012.05 705.45L1013.1 703.8L1014.6 707.1L1013.1 708.75L1013.85 710.1L1014.6 710.85V711L1015.05 711.75L1015.2 713.4L1015.35 713.25L1017 711.9L1020.6 710.1L1022.4 708.75L1023.15 710.7L1024.2 713.1L1023.45 715.95L1022.25 718.8V720.9L1022.4 723L1024.8 727.8L1029 731.1L1031.85 733.2L1034.4 737.4L1032.75 737.55L1032 738L1030.95 738.75L1030.2 739.2L1029.6 739.5L1028.55 743.4L1027.65 747.15L1031.7 759L1033.8 761.55L1038.75 767.25H1038.9L1046.1 765.9H1048.5L1050.9 773.25L1053.6 777.75L1054.5 779.1L1069.35 794.7L1074.15 802.35L1075.05 809.1L1067.4 811.5L1063.8 809.1L1055.4 798.15L1050.9 794.4L1045.2 792.3H1045.05H1044.45L1040.4 792.6L1036.8 796.35L1034.4 804.15L1038.45 805.95L1042.5 806.55L1045.95 805.2L1048.5 801.75L1052.55 803.25L1056.3 805.05L1057.65 806.7L1058.55 807.75L1057.95 811.5L1062.6 815.7L1067.1 820.05L1070.7 824.25L1074.45 830.55L1072.65 832.65L1072.2 834.6L1072.8 837L1074.45 840.3L1076.7 837.6L1075.35 832.95L1079.4 834.3L1087.5 840.3L1089.45 843L1095.75 859.35L1095.3 859.95L1093.35 868.8L1093.65 869.85V870L1095.3 873.3L1095.75 874.65L1094.4 877.05L1091.85 879L1090.35 881.1L1092.15 884.25L1093.95 886.5L1094.4 888.15L1094.55 888.45L1095.6 890.4L1098.15 892.65L1094.4 895.35L1094.7 896.7L1088.1 897.75L1078.65 899.25L1071.6 904.95L1059.45 916.95L1057.05 911.25L1056 891.6L1053.3 883.05L1053.15 874.2L1045.05 878.85L1021.95 881.25L999.3 877.35L993.45 871.65L982.5 865.05L979.35 859.95L978.6 854.1L982.05 843.9L982.5 833.55L971.55 831.3L961.05 828.3L953.4 821.1L941.55 803.85L932.4 800.85L921.3 801.45L911.85 799.65L906.9 772.65L910.05 745.8L912.6 735.6L920.4 730.35L930.3 729L942.75 730.65L946.05 730.35L943.2 717.45L937.35 704.85L934.8 691.95L937.65 636.9L935.7 618.6ZM1083.9 827.1L1083.3 823.35L1081.95 820.5L1080.3 817.05L1079.25 813.6L1079.4 810L1080.45 806.85L1080.9 803.4L1079.25 799.35L1083.6 803.7L1087.95 813.75L1090.95 818.4L1091.7 820.35L1095 829.05L1103.4 842.4L1107.3 848.7L1113.15 879V879.15L1112.85 886.05L1107.75 890.25L1102.95 886.5L1101.45 884.85L1100.7 884.1L1100.55 882.45L1100.25 880.65V879.9L1101.75 858L1100.7 850.5L1096.95 847.2L1095.45 844.05L1083.9 827.1Z" fill="white" stroke="#0E4C92" stroke-width="0.5" stroke-linecap="round" stroke-linejoin="round"/>
<path d="M544.8 1122.3L552.45 1115.4L543.9 1106.4L545.7 1102.2L547.2 1097.4L550.95 1091.4L555.3 1086L560.7 1083.6L575.1 1098.15L579.3 1103.7L584.7 1107.75L587.1 1106.4L590.7 1105.65L593.1 1108.65L594.75 1112.1L603.45 1114.05L613.95 1108.05L618.3 1107.6L623.55 1107.75L630.9 1111.95L640.5 1115.25L647.25 1116.15L654.15 1116L654 1121.7L656.25 1124.25L653.7 1126.65L652.35 1130.25L659.55 1135.65L667.95 1136.4L685.95 1140.45L704.85 1143L712.2 1141.8L720.75 1141.05L732.15 1141.5L742.95 1140L762.6 1129.8L763.5 1142.55L766.05 1141.35L768.6 1140.3L773.4 1145.55L779.25 1147.35L778.5 1150.65L777.45 1153.35L776.1 1154.7L766.65 1158.9L765 1163.55L768.75 1169.25L774 1173.6L781.95 1175.1L790.2 1171.65L797.25 1166.4L803.55 1166.1L797.85 1174.8L794.4 1183.65L787.95 1191.3L784.65 1199.1L781.35 1214.1L774.75 1223.4L769.5 1233.3L770.55 1239L772.8 1244.55L773.1 1266L776.85 1273.5L781.8 1279.95L788.4 1283.55L794.7 1288.05L798 1294.35L800.7 1302.45L807.15 1309.5L810.3 1318.35L808.65 1324.5L801.3 1322.1L788.7 1319.55L784.65 1314.9L779.4 1310.7L772.8 1311.3L766.2 1312.95L759.45 1311.9L734.1 1302.75L714.45 1298.85V1295.55L716.25 1293.75L711.75 1290.45L712.05 1287.15L708.15 1282.35L699.9 1283.7L693.75 1282.65L696 1276.5L691.05 1267.2L675.75 1269.3H669.9L667.5 1275L660.75 1276.5L654 1277.55L651 1273.2L645.45 1273.35L634.65 1268.1L629.55 1267.95L623.7 1265.55L618.9 1261.5L614.7 1257.15L602.25 1235.4L587.7 1214.85L585.75 1209L591 1206.9L586.05 1197.3L578.25 1190.25L573.45 1188.45L569.7 1184.85L567.6 1174.65L557.1 1164.45L553.65 1157.55L551.55 1150.95L552 1145.4L546 1129.35L544.8 1122.3Z" fill="white" stroke="#0E4C92" stroke-width="0.5" stroke-linecap="round" stroke-linejoin="round"/>
<path d="M1038.75 1203.9L1032.6 1211.25L1023.3 1212.9L1015.95 1218.45L1009.65 1224.6L1001.4 1228.2L994.65 1233.75L994.8 1239.6L996.45 1244.25L994.95 1246.8L993.45 1248.9L993.6 1251.75V1254.75L989.1 1262.1L979.5 1260L970.35 1263.3L967.2 1262.85L966.45 1261.95L962.55 1264.65L942 1272.6L931.95 1275.3L926.7 1277.4L923.25 1280.85L913.8 1286.1L905.25 1282.5L899.85 1273.5L893.4 1264.95L889.05 1265.55L885.9 1267.8L882.15 1267.95L878.7 1267.35L876.15 1261.05L870.3 1258.95L861.6 1257.9H852.9L849.75 1261.65L845.4 1258.65L845.55 1263.3L842.7 1267.2L837.9 1267.65H833.55L831.9 1275.45L835.2 1283.25L827.7 1288.95L817.95 1292.1L809.25 1296.9L800.7 1302.45L798 1294.35L794.7 1288.05L788.4 1283.55L781.8 1279.95L776.85 1273.5L773.1 1266L772.8 1244.55L770.55 1239L769.5 1233.3L774.75 1223.4L781.35 1214.1L784.65 1199.1L787.95 1191.3L794.4 1183.65L797.85 1174.8L803.55 1166.1L807.75 1166.4L810.3 1170.45L811.95 1176.45L814.65 1177.95L817.5 1178.55L820.65 1185.6L823.05 1193.25L825.45 1194.45L827.85 1195.8L829.35 1206.9L833.25 1211.85L836.25 1216.8L837.6 1207.5L842.55 1199.85L846.3 1202.25L850.05 1204.05L851.1 1195.8L858.3 1193.25L853.2 1185.15L849.9 1175.55V1170.15L850.65 1165.05L855.75 1157.1L855.3 1150.95L849.15 1149.3L847.8 1144.8L850.8 1138.5L850.05 1131L850.95 1123.65L862.65 1122.6L865.65 1116.75L875.7 1113.75L867.3 1101.9L874.65 1097.85L883.5 1095.45L887.85 1091.85L891.3 1087.5L892.95 1084.65L895.05 1082.55L898.5 1084.05L903 1083.15L904.65 1078.05L905.55 1072.65L907.95 1069.05L909.75 1065.15L911.1 1055.55L912.75 1049.25V1042.8L911.7 1038L909.9 1033.35L907.35 1030.2L905.55 1028.55L901.8 1023.75L889.05 1027.05L885 1022.85L881.55 1015.65L876.3 1010.4L871.95 1004.85L873 997.8L877.05 991.65L882.75 992.4L887.55 997.65L893.25 995.25L896.4 989.85L905.85 977.85L908.55 971.25V964.05L922.05 960.9L924.75 967.5L927.75 973.2L934.8 970.8L941.25 966.15L939.45 953.1L939.3 939.75L947.85 940.05L954.9 936.15L956.55 933.75L958.95 930.9L960.45 927.45L960.15 923.25L958.2 919.2V914.7L961.65 914.4L966.45 913.2L968.85 909.45L970.05 906.15L973.95 904.5L978.15 903L986.7 898.35L993.6 900.15L988.5 908.1L990.6 909.45L992.85 909.9L992.25 914.55L996.3 932.85L995.85 941.25L997.2 948L1004.85 954.6L1009.65 963L1010.7 970.5L1018.2 981L1012.65 985.35L1005.45 993.9L1001.4 1004.7L1005.75 1012.95L1007.25 1018.35L1009.95 1023.15L1012.65 1024.35H1015.2L1017.45 1025.55L1019.25 1027.2L1031.55 1030.35L1041.75 1036.5L1041 1043.1L1039.5 1050L1041.9 1056.6V1063.35L1045.95 1069.35L1047.75 1076.25L1038.75 1203.9Z" fill="white" stroke="#0E4C92" stroke-width="0.5" stroke-linecap="round" stroke-linejoin="round"/>
<path d="M544.8 1065L545.85 1062.15L545.7 1059L540.6 1042.5L542.4 1032.3L546.75 1022.25L551.85 1018.65L554.4 1012.8L547.05 1010.7L538.65 1012.65L534.45 1003.95L535.95 994.05L541.35 991.2L545.85 987L546.75 975L550.2 972.3L549.6 967.65L556.65 963.6L563.85 957.15L571.35 951.75L579.45 948L596.4 944.25L600.15 944.1L602.55 940.65L603.75 936.6L603.3 929.4L604.5 922.8L612.15 919.8L620.4 920.85L625.5 926.1L628.65 932.85L632.85 943.5L647.85 956.55L647.25 963.3L650.25 965.4L658.95 970.35L663.15 975.45L662.4 981.6V986.7L667.5 991.65L671.4 996.75L669.45 1001.4L666.75 1005.6L663 1006.5L659.25 1006.8L653.85 1012.65L641.85 1014.6L637.95 1018.2L643.2 1030.8L645.6 1035.15L643.2 1040.55L642.9 1047.45L643.35 1048.5L644.55 1048.8L641.55 1053.75L636.75 1057.95L634.05 1058.85L632.25 1061.55L634.05 1064.1L636.3 1066.35L633.9 1079.4L636.9 1089.45L646.95 1092.6L654.9 1098.6L657.6 1107.75L658.2 1112.4L654.15 1116L647.25 1116.15L640.5 1115.25L630.9 1111.95L623.55 1107.75L618.3 1107.6L613.95 1108.05L603.45 1114.05L594.75 1112.1L593.1 1108.65L590.7 1105.65L587.1 1106.4L584.7 1107.75L579.3 1103.7L575.1 1098.15L560.7 1083.6L555.3 1086L555.15 1082.55L554.7 1079.25L559.35 1074.9L558.3 1068.6L552.3 1065.6L544.8 1065Z" fill="white" stroke="#0E4C92" stroke-width="0.5" stroke-linecap="round" stroke-linejoin="round"/>
<path d="M824.4 843L825.3 843.9L830.55 847.05L832.8 852L833.25 857.7L835.95 866.1L844.5 880.35L850.8 878.1L854.25 877.35L858.45 875.7L865.8 868.8L882.75 859.35L898.2 862.65L899.4 880.05L895.8 897L893.85 900.6L892.95 903.75L894 908.1L895.35 912.45L897.6 927.75L901.5 936L906.6 941.1L909.6 940.35L913.8 941.1L915.3 944.25L917.7 948.3L920.85 954.6L922.05 960.9L908.55 964.05V971.25L905.85 977.85L896.4 989.85L893.25 995.25L887.55 997.65L882.75 992.4L877.05 991.65L873 997.8L871.95 1004.85L876.3 1010.4L881.55 1015.65L885 1022.85L889.05 1027.05L901.8 1023.75L905.55 1028.55L907.35 1030.2L909.9 1033.35L911.7 1038L912.75 1042.8V1049.25L911.1 1055.55L909.75 1065.15L907.95 1069.05L905.55 1072.65L904.65 1078.05L903 1083.15L898.5 1084.05L895.05 1082.55L892.95 1084.65L891.3 1087.5L887.85 1091.85L883.5 1095.45L874.65 1097.85L867.3 1101.9L875.7 1113.75L865.65 1116.75L862.65 1122.6L850.95 1123.65L850.05 1131L850.8 1138.5L847.8 1144.8L849.15 1149.3L855.3 1150.95L855.75 1157.1L850.65 1165.05L849.9 1170.15V1175.55L853.2 1185.15L858.3 1193.25L851.1 1195.8L850.05 1204.05L846.3 1202.25L842.55 1199.85L837.6 1207.5L836.25 1216.8L833.25 1211.85L829.35 1206.9L827.85 1195.8L825.45 1194.45L823.05 1193.25L820.65 1185.6L817.5 1178.55L814.65 1177.95L811.95 1176.45L810.3 1170.45L807.75 1166.4L803.55 1166.1L797.25 1166.4L790.2 1171.65L781.95 1175.1L774 1173.6L768.75 1169.25L765 1163.55L766.65 1158.9L776.1 1154.7L777.45 1153.35L778.5 1150.65L779.25 1147.35L773.4 1145.55L768.6 1140.3L766.05 1141.35L763.5 1142.55L762.6 1129.8L769.2 1128.15L772.65 1123.05L769.5 1121.55L766.35 1119.45L771.45 1111.2L770.1 1108.8L768.3 1106.7L766.35 1101.3L763.95 1096.5L753 1090.95L752.55 1085.4L758.85 1085.1L765.3 1085.4L769.95 1080.15L771.6 1073.25L777.15 1068.15L783.3 1065.15L796.5 1062.3L804.15 1050.9L805.65 1044.15L808.8 1038L811.65 1035.45L813.9 1032.45L815.1 1029.9L814.5 1027.5L812.7 1021.35L814.35 1018.2L816.75 1015.2L815.4 1013.4L813.9 1011.6L813.15 1008.6L813.9 1005.45L811.35 996.75L811.65 990.45L816 987.75L823.35 985.65L832.65 977.1L833.25 965.7L825.75 940.5L822.75 887.85L820.95 859.35L824.4 843Z" fill="white" stroke="#0E4C92" stroke-width="0.5" stroke-linecap="round" stroke-linejoin="round"/>
<path d="M824.7 805.95L824.4 811.8L826.95 819.75L827.7 826.35L824.4 843L820.95 859.35L822.75 887.85L811.8 886.65L804.75 887.7L800.85 894.15L798.75 896.1L796.2 897.45L792 892.2L786.3 895.05L772.05 894.9L761.1 904.05L751.2 905.55L738.3 894.9L733.2 892.8L728.4 895.8L726.3 901.2L727.5 913.95L720 922.2L707.4 921.45L685.35 907.65L678.3 897.75L678.45 894.15L680.4 891.6L681.15 887.4L680.1 883.05L678.3 879.3L676.2 875.85L672.75 868.8L673.65 861.45L678.6 856.95L679.8 853.95L679.65 850.8L680.7 846.75L680.85 842.7L674.55 836.4L672.6 825.6L671.55 814.05L669.9 811.5L668.55 810.6V804.6L666.15 798.6L662.7 792.9L660.3 787.35L657.6 786.6L654.6 784.95L653.7 778.8L655.35 773.1L662.7 767.7L674.25 763.35L680.4 756L685.95 756.15L690.15 758.85L695.25 755.4L697.8 751.2L700.2 749.4L702.45 748.2L702.3 745.65L701.4 744L705.9 739.5L709.2 734.4V727.95L711 722.25H714.6L717.15 723L719.1 721.5L725.85 714.45L730.35 710.55L736.95 707.25L744.15 704.25L747.15 707.25L751.95 712.65L751.8 718.8L753.75 720.75L756.6 721.95L758.85 720.45L759 718.2L763.2 716.25L767.25 717.45L772.65 718.5L777.75 721.65L767.4 732.45L763.95 748.95L763.05 757.05L759.75 771.15L758.55 773.55L757.95 776.1L747.9 778.35L745.5 787.95L750.15 809.1L749.55 816L753 820.8L762.15 822.75L770.85 819.15L777.6 812.85L780.6 817.05L786 820.35L787.5 814.2L788.25 808.05L806.7 809.25L824.7 805.95Z" fill="white" stroke="#0E4C92" stroke-width="0.5" stroke-linecap="round" stroke-linejoin="round"/>
<path d="M802.2 590.85L807.45 589.35L811.5 595.35L817.05 597.6L822.45 601.65L823.8 609L828.15 613.35L842.7 611.85L868.95 618.3H875.1L880.8 621.6L886.35 625.95L892.5 629.1L896.85 628.65L899.4 632.25L899.85 636.6L899.7 641.1L900.9 647.7L899.1 652.05L895.05 654.6L896.4 655.65L898.2 656.25L906.75 654.15L911.7 642.75L913.5 639.45L915.6 630.3L918 628.2L920.7 626.25L922.95 622.05L926.1 618.6H930.45H935.7L937.65 636.9L934.8 691.95L937.35 704.85L943.2 717.45L946.05 730.35L942.75 730.65L930.3 729L920.4 730.35L912.6 735.6L910.05 745.8L906.9 772.65L911.85 799.65L910.35 807.45L911.4 815.7L909.45 819.45L907.2 821.7L905.7 825.9L904.8 829.5L898.05 828.6L889.95 823.95L873.15 818.7L862.95 808.5L850.35 803.7L844.05 804.75L831.15 805.95H824.7L806.7 809.25L788.25 808.05L787.5 814.2L786 820.35L780.6 817.05L777.6 812.85L770.85 819.15L762.15 822.75L753 820.8L749.55 816L750.15 809.1L745.5 787.95L747.9 778.35L757.95 776.1L758.55 773.55L759.75 771.15L763.05 757.05L763.95 748.95L767.4 732.45L777.75 721.65L772.65 718.5L767.25 717.45L763.2 716.25L759 718.2L758.85 720.45L756.6 721.95L753.75 720.75L751.8 718.8L751.95 712.65L747.15 707.25L744.15 704.25L744.6 695.1L751.35 685.5L744.45 680.1L745.05 667.95L747.45 654.3L752.4 641.1L755.25 626.4L760.35 613.05L774 610.5H789.3L793.8 607.8L795.15 601.65L797.85 595.5L802.2 590.85Z" fill="white" stroke="#0E4C92" stroke-width="0.5" stroke-linecap="round" stroke-linejoin="round"/>
<path d="M462.45 961.65L461.55 940.95L448.8 872.25L448.2 860.25L448.8 848.25L452.55 838.65L457.8 829.8L459.15 825.75L461.55 822.3L466.5 821.1L470.7 818.85L468.75 815.55L464.55 814.5L466.2 810L468.6 805.95L473.1 804.6L478.05 804.15L481.8 802.65L484.2 799.35L482.85 795.75L481.05 791.85L482.1 782.55L485.4 774.15L486 769.95L487.35 766.2L491.85 763.8L496.05 760.95L496.95 757.2L498.6 753.6L505.95 749.85L507.3 746.7L507.9 743.1L510 738.3L515.1 735.9L514.8 736.5L514.5 737.1L516.6 736.5L519.3 733.65L519.45 729.45L521.4 726L528.6 730.05L532.95 726.75L528.75 718.95L530.85 714.9L533.4 711L533.7 703.05L533.4 693.6L534.75 689.1L535.65 684.9L531.6 682.2L526.8 680.55L523.5 674.4L522.3 667.5L518.7 653.7L518.85 646.65L518.1 640.05L525.6 644.25L557.55 658.8L564.3 660.6L570.9 663.3L576.15 666.9L582.45 667.95L594 672.3L604.35 680.85L610.05 686.55L616.35 690.45L622.8 690.15L628.05 694.5V698.85L627.45 703.2L628.5 710.7L628.05 717L628.65 723.15L633.45 725.1L639.15 725.55L642 730.35L642.9 736.2L646.05 744.3L647.85 752.55L646.5 764.7L655.35 773.1L653.7 778.8L654.6 784.95L657.6 786.6L660.3 787.35L662.7 792.9L666.15 798.6L668.55 804.6V810.6L669.9 811.5L671.55 814.05L672.6 825.6L674.55 836.4L680.85 842.7L680.7 846.75L679.65 850.8L679.8 853.95L678.6 856.95L673.65 861.45L672.75 868.8L676.2 875.85L678.3 879.3L680.1 883.05L681.15 887.4L680.4 891.6L678.45 894.15L678.3 897.75L674.1 899.7L670.05 900.75L672.9 905.25L674.85 909.9L671.25 911.7L666.15 910.95L661.2 913.65L661.65 917.55L661.2 921.15L655.2 920.7L649.95 916.95H644.85L643.8 923.85L642.3 925.8L641.1 927.9L641.4 930.15L642 931.8L635.85 933.6L628.65 932.85L625.5 926.1L620.4 920.85L612.15 919.8L604.5 922.8L603.3 929.4L603.75 936.6L602.55 940.65L600.15 944.1L596.4 944.25L579.45 948L571.35 951.75L563.85 957.15L556.65 963.6L549.6 967.65L543.6 963.3L535.05 953.4L532.95 950.55L532.05 947.55L528.9 944.1L519.3 945.9L510.75 951.9L500.85 954.75L491.25 948.15L483 948.45L469.8 958.8L462.45 961.65Z" fill="white" stroke="#0E4C92" stroke-width="0.5" stroke-linecap="round" stroke-linejoin="round"/>
<path d="M743.1 392.1L752.85 388.2L763.05 388.35L771.75 393.45L786.9 403.95L792.15 409.8L795 413.55L798.3 416.1L794.25 425.1L788.4 433.8L788.55 448.8L795 462.9L797.55 470.25L792.3 482.7L792.6 489.9L795.45 493.2L799.2 496.8L800.55 505.2L809.7 518.85L814.65 530.4L817.65 534.45L821.7 537.45L823.95 542.85L821.1 547.95L816.3 551.25L811.95 555.45L810.6 559.65L809.7 564L802.2 590.85L797.85 595.5L795.15 601.65L793.8 607.8L789.3 610.5H774L760.35 613.05L755.25 626.4L752.4 641.1L747.45 654.3L745.05 667.95L744.45 680.1L751.35 685.5L744.6 695.1L744.15 704.25L736.95 707.25L730.35 710.55L725.85 714.45L719.1 721.5L717.15 723L714.6 722.25H711L709.2 727.95V734.4L705.9 739.5L701.4 744L702.3 745.65L702.45 748.2L700.2 749.4L697.8 751.2L695.25 755.4L690.15 758.85L685.95 756.15L680.4 756L674.25 763.35L662.7 767.7L655.35 773.1L646.5 764.7L647.85 752.55L646.05 744.3L642.9 736.2L642 730.35L639.15 725.55L633.45 725.1L628.65 723.15L628.05 717L628.5 710.7L627.45 703.2L628.05 698.85V694.5L622.8 690.15L616.35 690.45L610.05 686.55L604.35 680.85L594 672.3L582.45 667.95L576.15 666.9L570.9 663.3L564.3 660.6L557.55 658.8L525.6 644.25L518.1 640.05L514.35 635.1L509.25 630.9L502.2 631.2L496.05 626.55L490.2 629.25H483L480.9 622.95L472.2 587.85L467.1 577.95L471 569.4L476.85 566.7L478.35 563.55L478.8 561L489.6 552.15L495.9 538.8L493.95 524.4L496.8 525.75L500.1 526.2L500.85 493.8L498.15 473.25L513.45 479.55L530.4 479.7L564.15 470.85L564.3 482.1L567.75 492L573 493.8L578.1 496.2L580.35 500.4L581.7 505.2L585.3 512.55L592.65 516.45L596.25 517.5L599.55 517.65L604.8 508.2L610.95 505.5L617.4 490.35L631.05 472.65L641.55 467.85L648 471.15L653.85 475.35H664.8L674.1 468.3L682.8 460.35L690.3 451.5L694.5 445.05L699.45 439.2L707.7 432.6L704.7 423.6L698.4 415.35L689.4 412.2L688.8 404.55L714.45 403.65L724.5 396.6L733.65 393.9L743.1 392.1Z" fill="white" stroke="#0E4C92" stroke-width="0.5" stroke-linecap="round" stroke-linejoin="round"/>
<path d="M762.6 1129.8L742.95 1140L732.15 1141.5L720.75 1141.05L712.2 1141.8L704.85 1143L685.95 1140.45L667.95 1136.4L659.55 1135.65L652.35 1130.25L653.7 1126.65L656.25 1124.25L654 1121.7L654.15 1116L658.2 1112.4L657.6 1107.75L654.9 1098.6L646.95 1092.6L636.9 1089.45L633.9 1079.4L636.3 1066.35L634.05 1064.1L632.25 1061.55L634.05 1058.85L636.75 1057.95L641.55 1053.75L644.55 1048.8L643.35 1048.5L642.9 1047.45L652.8 1048.35L668.4 1071.45L678.45 1077.45L685.95 1069.5L690 1057.8L685.95 1052.25L680.85 1047.3L674.7 1036.05L672 1034.85L669.15 1035.75L676.95 1029.45L689.55 1030.95L696.45 1029.45L706.5 1022.55L713.25 1022.4L719.25 1023.9L741.45 997.5L748.5 985.65L745.35 972.6L744.3 962.55L750.3 967.95L755.25 974.55L758.85 975.9L761.85 976.2L769.8 988.8L782.4 989.7L797.25 987.6L811.65 990.45L811.35 996.75L813.9 1005.45L813.15 1008.6L813.9 1011.6L815.4 1013.4L816.75 1015.2L814.35 1018.2L812.7 1021.35L814.5 1027.5L815.1 1029.9L813.9 1032.45L811.65 1035.45L808.8 1038L805.65 1044.15L804.15 1050.9L796.5 1062.3L783.3 1065.15L777.15 1068.15L771.6 1073.25L769.95 1080.15L765.3 1085.4L758.85 1085.1L752.55 1085.4L753 1090.95L763.95 1096.5L766.35 1101.3L768.3 1106.7L770.1 1108.8L771.45 1111.2L766.35 1119.45L769.5 1121.55L772.65 1123.05L769.2 1128.15L762.6 1129.8Z" fill="white" stroke="#0E4C92" stroke-width="0.5" stroke-linecap="round" stroke-linejoin="round"/>
<path d="M747.45 381L744.6 386.1L743.1 392.1L733.65 393.9L724.5 396.6L714.45 403.65L688.8 404.55L689.4 412.2L698.4 415.35L704.7 423.6L707.7 432.6L699.45 439.2L694.5 445.05L690.3 451.5L682.8 460.35L674.1 468.3L664.8 475.35H653.85L648 471.15L641.55 467.85L631.05 472.65L617.4 490.35L610.95 505.5L604.8 508.2L599.55 517.65L596.25 517.5L592.65 516.45L585.3 512.55L581.7 505.2L580.35 500.4L578.1 496.2L573 493.8L567.75 492L564.3 482.1L564.15 470.85L550.95 453.9L542.85 447.6V443.1L544.2 437.85L553.05 436.95L558.3 425.25L567.9 419.85L580.5 421.2L600 418.8L618.45 411.9L620.25 399.75L615 386.25L609.6 377.7L600.3 373.35L616.35 363.15L625.95 355.35L632.1 345.9L631.8 340.05L630.45 334.05V330.9L630.15 328.05L625.05 327.3L622.35 323.55L623.25 318.45L629.55 317.85L636.15 318.3L648.15 318L656.7 323.4L662.1 331.35L670.5 327.6L676.5 322.35L679.95 320.7L683.25 318.75L683.85 316.95L684.6 315.3L695.85 315L706.65 319.05L707.85 330.3L717.15 331.35L721.2 338.4L717.9 343.35L717.3 348.15L722.7 346.8L727.8 343.35L738.6 345L749.7 351.75L753.9 357.3L747.45 381Z" fill="white" stroke="#0E4C92" stroke-width="0.5" stroke-linecap="round" stroke-linejoin="round"/>
<path d="M642.9 1047.45L643.2 1040.55L645.6 1035.15L643.2 1030.8L637.95 1018.2L641.85 1014.6L653.85 1012.65L659.25 1006.8L663 1006.5L666.75 1005.6L669.45 1001.4L671.4 996.75L667.5 991.65L662.4 986.7V981.6L663.15 975.45L658.95 970.35L650.25 965.4L647.25 963.3L647.85 956.55L632.85 943.5L628.65 932.85L635.85 933.6L642 931.8L641.4 930.15L641.1 927.9L642.3 925.8L643.8 923.85L644.85 916.95H649.95L655.2 920.7L661.2 921.15L661.65 917.55L661.2 913.65L666.15 910.95L671.25 911.7L674.85 909.9L672.9 905.25L670.05 900.75L674.1 899.7L678.3 897.75L685.35 907.65L707.4 921.45L720 922.2L727.5 913.95L726.3 901.2L728.4 895.8L733.2 892.8L738.3 894.9L751.2 905.55L761.1 904.05L772.05 894.9L786.3 895.05L792 892.2L796.2 897.45L798.75 896.1L800.85 894.15L804.75 887.7L811.8 886.65L822.75 887.85L825.75 940.5L833.25 965.7L832.65 977.1L823.35 985.65L816 987.75L811.65 990.45L797.25 987.6L782.4 989.7L769.8 988.8L761.85 976.2L758.85 975.9L755.25 974.55L750.3 967.95L744.3 962.55L745.35 972.6L748.5 985.65L741.45 997.5L719.25 1023.9L713.25 1022.4L706.5 1022.55L696.45 1029.45L689.55 1030.95L676.95 1029.45L669.15 1035.75L672 1034.85L674.7 1036.05L680.85 1047.3L685.95 1052.25L690 1057.8L685.95 1069.5L678.45 1077.45L668.4 1071.45L652.8 1048.35L642.9 1047.45Z" fill="white" stroke="#0E4C92" stroke-width="0.5" stroke-linecap="round" stroke-linejoin="round"/>
</svg>
