<svg width="350" height="7" viewBox="0 0 350 7" fill="none" xmlns="http://www.w3.org/2000/svg">
<g clip-path="url(#clip0_25_76)">
<path d="M349.831 2.54173C349.726 2.41306 349.595 2.30585 349.447 2.2263C349.398 2.19887 349.348 2.17541 349.295 2.1562C349.226 2.13175 349.156 2.1107 349.085 2.09311C348.911 2.05105 348.781 2.03001 348.657 2.00898C347.723 1.89682 346.911 1.86879 346.064 1.81972L343.556 1.72859L338.557 1.60943L328.58 1.48324L308.633 1.36408L268.731 1.29398H228.837H163.823C142.151 1.29398 120.48 1.29398 98.8153 1.35707H91.0119C91.3608 1.19715 91.7358 1.09752 92.1205 1.06267C99.9239 0.144379 93.7653 -0.129006 70.4562 0.0532496C65.3841 0.0953088 60.008 0.0532496 54.8274 0.0532496C42.8215 0.0182005 22.6281 0.0532496 10.5062 0.0532496C8.67312 0.0532496 6.81824 0.0952975 4.94164 0.151376C3.99972 0.151376 3.05779 0.207464 2.04341 0.270553H1.66665L1.23191 0.326622C1.12937 0.33921 1.02774 0.357951 0.927597 0.382713H0.862386L0.739216 0.42477C0.656955 0.464717 0.577119 0.509187 0.500109 0.557959C0.400735 0.626387 0.312769 0.709132 0.239268 0.803309C0.0871926 0.994409 0.00329168 1.22807 0.000162781 1.46923C-0.0045414 1.7517 0.0928426 2.02691 0.275498 2.24733C0.348128 2.3246 0.428181 2.39501 0.514593 2.45762L0.652261 2.54173L0.746455 2.58379L0.942091 2.64688C1.11651 2.68511 1.29312 2.71322 1.47101 2.73101C1.99994 2.78709 2.4709 2.80811 2.92013 2.82914C6.73852 2.99036 10.5352 3.02541 14.303 3.06045L23.1643 3.13757L20.8167 3.18665L18.9256 3.25675H16.6577V3.50909H16.4766L16.2593 3.5792C16.1601 3.61707 16.0672 3.66905 15.9839 3.73341C15.8159 3.85752 15.6877 4.02525 15.6144 4.2171C15.5561 4.37891 15.5368 4.55149 15.5582 4.72161C15.5795 4.89173 15.6409 5.05486 15.7376 5.19846L16.1506 5.64706H17.0273V5.76628C17.0273 5.84339 17.0273 5.76628 17.0273 5.80833H17.0635H17.2881L17.817 5.76628L18.8966 5.71017H19.1285C73.579 6.20787 128.022 5.85038 182.523 5.62606H195.138C193.892 5.76628 193.182 5.92049 193.088 6.09571C192.653 6.88784 214.252 6.88784 226.953 6.92289L257.443 7H272.659C275.199 7 277.745 7 280.295 7C281.57 7 282.845 7 284.135 6.93689C284.78 6.93689 285.418 6.89484 286.099 6.84579L286.649 6.79673L286.845 6.76168H287.005C287.135 6.58641 287.077 7.05605 287.86 6.0256C287.853 5.67275 287.802 5.32198 287.707 4.98116L309.495 4.9461L329.413 4.869L339.383 4.77787L344.382 4.67975L346.897 4.58861C347.317 4.58861 347.737 4.54656 348.179 4.5045C348.445 4.48883 348.709 4.45366 348.969 4.39933H349.077L349.237 4.33625C349.41 4.26666 349.562 4.15572 349.679 4.01381C350.186 4.00679 349.976 2.19825 349.831 2.54173Z" fill="#0E4C92"/>
</g>
<defs>
<clipPath id="clip0_25_76">
<rect width="350" height="7" fill="white"/>
</clipPath>
</defs>
</svg>
